Coordinates
version=1
nRows=60
nColumns=12
inDegrees=yes

Units are S.I. units (second, meters, Newtons, ...)
Angles are in degrees

endheader
time	SC_y	SC_z	SC_x	AC_y	AC_z	AC_x	GH_y	GH_z	GH_yy	EL_x	PS_y
       0.0               -43.5          30.48           2.08          69.35         -18.98          7.216          164.4          74.35         -19.63          56.55          43.91
   0.03041               -43.5          30.48           2.09          69.35         -18.97          7.215          164.4          74.35         -19.62          56.55          43.92
   0.06081              -43.51          30.48          2.101          69.35         -18.97          7.213          164.4          74.34         -19.61          56.54          43.93
   0.09122              -43.51          30.48          2.112          69.35         -18.97          7.211          164.4          74.34         -19.59          56.54          43.94
    0.1216              -43.51          30.48          2.125          69.34         -18.97           7.21          164.4          74.33         -19.58          56.53          43.95
     0.152              -43.51          30.49          2.138          69.34         -18.97          7.208          164.3          74.33         -19.57          56.53          43.96
    0.1824              -43.51          30.49          2.152          69.34         -18.96          7.206          164.3          74.32         -19.56          56.52          43.97
    0.2128              -43.51          30.49          2.167          69.34         -18.96          7.204          164.3          74.32         -19.54          56.51          43.98
    0.2432              -43.52          30.49          2.183          69.34         -18.96          7.202          164.3          74.31         -19.53          56.51          43.99
    0.2737              -43.52          30.49            2.2          69.34         -18.95          7.199          164.3           74.3         -19.51           56.5           44.0
    0.3041              -43.52          30.49          2.218          69.34         -18.95          7.197          164.3           74.3         -19.49          56.49          44.02
    0.3345              -43.52          30.49          2.238          69.33         -18.95          7.194          164.2          74.29         -19.47          56.48          44.03
    0.3649              -43.53          30.49           2.26          69.33         -18.94          7.191          164.2          74.28         -19.45          56.47          44.05
    0.3953              -43.53          30.49          2.283          69.33         -18.94          7.188          164.2          74.27         -19.43          56.46          44.07
    0.4257              -43.53           30.5          2.308          69.33         -18.94          7.184          164.2          74.26          -19.4          56.45          44.09
    0.4561              -43.54           30.5          2.335          69.33         -18.93           7.18          164.1          74.25         -19.38          56.43          44.11
    0.4865              -43.54           30.5          2.364          69.32         -18.92          7.176          164.1          74.24         -19.35          56.42          44.13
    0.5169              -43.55           30.5          2.396          69.32         -18.92          7.172          164.1          74.23         -19.32          56.41          44.15
    0.5473              -43.55           30.5          2.431          69.32         -18.91          7.167          164.0          74.21         -19.28          56.39          44.18
    0.5777              -43.56           30.5           2.47          69.32         -18.91          7.161          164.0           74.2         -19.25          56.37          44.21
    0.6081              -43.56          30.51          2.512          69.31          -18.9          7.155          163.9          74.18          -19.2          56.35          44.24
    0.6385              -43.57          30.51          2.558          69.31         -18.89          7.149          163.9          74.16         -19.16          56.33          44.28
    0.6689              -43.58          30.51           2.61           69.3         -18.88          7.142          163.8          74.14         -19.11          56.31          44.31
    0.6993              -43.58          30.52          2.667           69.3         -18.87          7.134          163.8          74.12         -19.05          56.28          44.36
    0.7297              -43.59          30.52           2.73          69.29         -18.86          7.125          163.7          74.09         -18.99          56.25          44.41
    0.7601               -43.6          30.52            2.8          69.29         -18.85          7.115          163.6          74.07         -18.92          56.22          44.46
    0.7906              -43.61          30.53          2.879          69.28         -18.83          7.104          163.5          74.04         -18.85          56.18          44.52
     0.821              -43.63          30.53          2.968          69.27         -18.81          7.091          163.4           74.0         -18.76          56.14          44.59
    0.8514              -43.64          30.54          3.068          69.27          -18.8          7.077          163.3          73.96         -18.66          56.09          44.66
    0.8818              -43.66          30.54          3.182          69.26         -18.78          7.061          163.2          73.92         -18.55          56.04          44.75
    0.9122              -43.67          30.55          3.312          69.25         -18.75          7.043          163.1          73.86         -18.42          55.98          44.85
    0.9426               -43.7          30.56          3.461          69.23         -18.72          7.022          162.9          73.81         -18.28          55.91          44.96
     0.973              -43.72          30.57          3.633          69.22         -18.69          6.998          162.7          73.74         -18.11          55.83          45.09
     1.003              -43.75          30.58          3.834           69.2         -18.66           6.97          162.5          73.66         -17.92          55.74          45.24
     1.034              -43.78          30.59          4.068          69.18         -18.61          6.937          162.2          73.57         -17.69          55.63          45.42
     1.064              -43.82          30.61          4.344          69.16         -18.56          6.898          161.9          73.46         -17.42           55.5          45.63
     1.095              -43.86          30.63          4.672          69.13          -18.5          6.852          161.6          73.33          -17.1          55.34          45.88
     1.125              -43.92          30.65          5.065           69.1         -18.43          6.797          161.2          73.17         -16.71          55.16          46.18
     1.155              -43.99          30.68          5.541          69.06         -18.35          6.731          160.6          72.99         -16.25          54.94          46.54
     1.186              -44.07          30.71          6.122          69.01         -18.24          6.649          160.0          72.76         -15.68          54.67          46.98
     1.216              -44.17          30.75          6.839          68.96         -18.11          6.548          159.2          72.47         -14.98          54.33          47.53
     1.247              -44.29           30.8          7.734          68.88         -17.94          6.423          158.3          72.12         -14.11          53.92          48.21
     1.277              -44.45          30.86          8.861          68.79         -17.74          6.265          157.0          71.68         -13.01          53.39          49.06
     1.307              -44.65          30.94          10.29          68.67         -17.48          6.064          155.5          71.11         -11.61          52.72          50.15
     1.338               -44.9          31.04          12.13          68.52         -17.14          5.807          153.5          70.39         -9.826          51.87          51.54
     1.368              -45.23          31.17          14.48          68.33         -16.71          5.477          150.9          69.46          -7.53          50.77          53.33
     1.399              -45.65          31.34          17.48          68.08         -16.17          5.055          147.6          68.28         -4.599          49.37          55.61
     1.429              -46.18          31.55          21.26          67.77         -15.48          4.525          143.5          66.79        -0.9123           47.6          58.48
     1.459              -46.82          31.81          25.87          67.39         -14.64          3.879          138.5          64.97           3.58          45.46          61.98
      1.49              -47.56          32.11          31.21          66.95         -13.66          3.131          132.7          62.86          8.787          42.97          66.04
      1.52              -48.37          32.43          36.99          66.47         -12.61           2.32          126.4          60.59          14.43          40.27          70.43
     1.551              -49.18          32.75          42.77           66.0         -11.55          1.509          120.1          58.31          20.06          37.57          74.82
     1.581              -49.92          33.05           48.1          65.56         -10.58         0.7606          114.3           56.2          25.27          35.08          78.87
     1.612              -50.56          33.31          52.71          65.18         -9.737         0.1147          109.3          54.39          29.76          32.94          82.37
     1.642              -51.09          33.52          56.49          64.87         -9.047        -0.4154          105.2           52.9          33.45          31.17          85.24
     1.672              -51.51          33.69          59.49          64.62         -8.499        -0.8369          101.9          51.71          36.38          29.77          87.52
     1.703              -51.84          33.82          61.85          64.43         -8.069         -1.167          99.37          50.78          38.68          28.67          89.31
     1.733              -52.09          33.92          63.68          64.27         -7.735         -1.424          97.37          50.06          40.46          27.82           90.7
     1.764              -52.29           34.0          65.11          64.16         -7.473         -1.625          95.81          49.49          41.86          27.15          91.79
     1.794              -52.45          34.06          66.24          64.06         -7.267         -1.783          94.59          49.05          42.96          26.62          92.64
